<?xml version="1.0" encoding="UTF-8" standalone="no"?>
<!-- Created with Inkscape (http://www.inkscape.org/) -->

<svg
   width="63.78521mm"
   height="13.207939mm"
   viewBox="0 0 63.78521 13.207939"
   version="1.1"
   id="svg1"
   xml:space="preserve"
   xmlns="http://www.w3.org/2000/svg"
   xmlns:svg="http://www.w3.org/2000/svg"><defs
     id="defs1" /><g
     id="layer1"
     transform="translate(-77.955517,-148.65677)"><g
       id="g35"
       transform="translate(19.787856,67.543904)"><path
         id="path39"
         style="fill:#f6e1c5"
         d="m 62.222596,81.113713 c -0.515839,0.0068 -1.025298,0.05509 -1.278991,0.141077 -1.445475,0.489924 -2.419425,1.530196 -2.699577,2.883545 -0.113066,0.546201 -0.09795,1.733147 0.02791,2.206067 0.377249,1.417578 1.449248,2.470826 2.862358,2.812748 0.564108,0.136506 1.693412,0.140938 2.314587,0.0093 1.866815,-0.395604 3.05201,-1.93041 3.05201,-3.952731 0,-1.961255 -1.122064,-3.475287 -2.960026,-3.993554 -0.279863,-0.07892 -0.802427,-0.113289 -1.318266,-0.106454 z m 32.883264,0.12454 c -1.521835,0.01861 -1.682584,0.03251 -1.682584,0.144178 0,0.09319 0.09275,0.135983 0.377754,0.175183 0.544567,0.0749 0.71892,0.272563 0.72192,0.818038 0.0013,0.233174 0.0064,1.688886 0.01085,3.234944 l 0.0083,2.811198 -0.185519,0.159164 c -0.109408,0.09411 -0.338458,0.180019 -0.559139,0.209289 -0.306123,0.04061 -0.374137,0.07555 -0.374137,0.19327 0,0.138786 0.05867,0.14366 1.682584,0.14366 1.599977,0 1.682585,-0.0067 1.682585,-0.137976 0,-0.108187 -0.07367,-0.149035 -0.341064,-0.189135 -0.231616,-0.03473 -0.407854,-0.117949 -0.548804,-0.258899 l -0.207223,-0.207223 v -3.043742 c 0,-3.671909 -0.0152,-3.599265 0.786516,-3.732072 0.243428,-0.04032 0.310575,-0.08273 0.310575,-0.195853 0,-0.140275 -0.04901,-0.144004 -1.682585,-0.124024 z m -8.547798,0.0062 c -1.579345,0.01714 -1.766813,0.03148 -1.766817,0.138493 -3e-6,0.08562 0.09287,0.134012 0.326078,0.168982 0.179318,0.02689 0.401767,0.109805 0.494027,0.184485 l 0.167948,0.135909 0.02015,3.204456 c 0.02114,3.295993 0.0016,3.563998 -0.266134,3.641638 -0.06608,0.01916 -0.276561,0.05674 -0.467672,0.08372 -0.274404,0.03873 -0.347265,0.07809 -0.347265,0.187068 0,0.131499 0.08463,0.137976 1.792138,0.137976 1.698886,0 1.792139,-0.0069 1.792139,-0.135909 0,-0.113554 -0.07444,-0.14328 -0.449068,-0.17725 -0.785645,-0.07124 -0.859547,-0.261271 -0.864547,-2.228804 l -0.0031,-1.261939 h 0.306441 c 0.2758,0 0.341995,0.03835 0.661975,0.383956 0.195565,0.211228 0.543242,0.62684 0.772563,0.923458 0.229321,0.296618 0.763028,0.971474 1.185974,1.49965 l 0.768945,0.960148 1.114661,0.02067 c 1.051434,0.01905 1.11466,0.01208 1.11466,-0.118339 0,-0.1085 -0.07091,-0.147912 -0.330212,-0.183452 -0.600465,-0.0823 -1.060353,-0.422592 -1.734261,-1.283125 -0.868708,-1.10928 -1.442464,-1.814628 -1.657263,-2.037602 -0.125613,-0.130394 -0.22841,-0.250134 -0.22841,-0.266134 0,-0.01601 0.123525,-0.05211 0.274402,-0.0801 0.439898,-0.0816 1.117632,-0.481189 1.342553,-0.791683 0.251185,-0.346749 0.387701,-0.9629 0.320911,-1.448491 -0.115869,-0.842468 -0.888937,-1.466097 -1.989026,-1.604036 -0.321631,-0.04033 -1.380077,-0.06429 -2.351794,-0.05374 z m 11.567769,5.17e-4 c -0.297925,0.01466 -0.313159,0.05007 -0.313159,0.119373 0,0.11016 0.06925,0.154143 0.306958,0.194303 0.475355,0.08031 0.691978,0.344931 0.750858,0.917257 0.02658,0.258515 0.03842,1.699124 0.02584,3.201355 l -0.02274,2.731099 -0.196887,0.168982 c -0.118604,0.101979 -0.343349,0.189402 -0.566891,0.220142 -0.300376,0.04131 -0.37052,0.07762 -0.37052,0.192753 10e-7,0.138222 0.06177,0.141347 2.32286,0.110587 2.05623,-0.02797 2.38782,-0.04886 2.89388,-0.183451 1.83468,-0.487956 2.71974,-1.710365 2.70784,-3.74034 -0.004,-0.69888 -0.0357,-0.929124 -0.18655,-1.361157 -0.33711,-0.96543 -0.91813,-1.657738 -1.74408,-2.07791 -0.83754,-0.426068 -1.07,-0.457265 -3.59823,-0.487825 -1.130891,-0.01367 -1.711255,-0.01982 -2.00918,-0.0052 z m 11.198799,0.0015 c -2.82618,-0.01636 -2.87993,-0.01382 -2.87993,0.128158 0,0.112971 0.0521,0.146229 0.23771,0.151929 0.42649,0.01308 0.5991,0.09839 0.73123,0.360701 0.11571,0.229797 0.12805,0.548084 0.12815,3.350183 v 3.096452 l -0.20463,0.205156 c -0.14547,0.145474 -0.31092,0.219134 -0.57,0.254764 -0.2892,0.03977 -0.36768,0.07961 -0.37568,0.19172 -0.0104,0.137932 0.0702,0.141593 3.19515,0.141593 h 3.20601 l 0.0475,-0.896069 c 0.0259,-0.492865 0.0659,-1.055682 0.0889,-1.25057 0.0372,-0.314609 0.0268,-0.351342 -0.091,-0.328662 -0.0871,0.01678 -0.1525,0.122705 -0.1912,0.309025 -0.10062,0.484286 -0.48349,1.194017 -0.77256,1.432471 -0.38006,0.313512 -0.64068,0.36747 -1.78749,0.367936 -0.92749,3.78e-4 -1.01383,-0.01134 -1.14722,-0.154512 -0.19034,-0.204322 -0.24172,-0.744184 -0.21342,-2.252059 l 0.0227,-1.19941 0.65835,0.0155 c 0.3621,0.0087 0.74071,0.05518 0.8413,0.102836 0.23301,0.110397 0.43858,0.519412 0.43873,0.872815 9e-5,0.225511 0.026,0.274402 0.14624,0.274402 0.1413,0 0.14676,-0.04885 0.14676,-1.353406 0,-1.273901 -0.009,-1.353406 -0.13746,-1.353406 -0.11123,0 -0.14359,0.0696 -0.17259,0.371554 -0.0594,0.617873 -0.37298,0.788817 -1.464,0.795817 l -0.49402,0.0031 V 83.238594 81.5927 h 1.06298 c 1.09917,0 1.42574,0.06525 1.74046,0.349849 0.19059,0.172355 0.39267,0.587412 0.45527,0.933793 0.0665,0.367829 0.0877,0.401093 0.21859,0.350883 0.1203,-0.04617 0.13648,-0.409919 0.061,-1.378727 l -0.046,-0.584977 z m 4.67568,5.17e-4 c -0.29195,0.01489 -0.31367,0.04945 -0.31367,0.115755 0,0.110296 0.0737,0.147652 0.3669,0.186552 0.84431,0.111998 0.80354,-0.07113 0.80254,3.642155 -9e-4,2.343054 -0.0236,3.138841 -0.0935,3.27732 -0.10039,0.198965 -0.46224,0.355235 -0.83819,0.361735 -0.18765,0.0033 -0.23771,0.03493 -0.23771,0.150378 0,0.142505 0.0489,0.146244 1.86552,0.146244 1.75881,0 1.86552,-0.0076 1.86552,-0.133842 0,-0.110969 -0.0894,-0.145221 -0.52349,-0.201021 -0.80787,-0.103856 -0.81427,-0.118714 -0.85317,-1.969389 l -0.0315,-1.49965 h 0.32298 c 0.28476,0 0.35849,0.03714 0.62064,0.311092 0.16363,0.170994 0.68649,0.821248 1.1622,1.444873 0.4757,0.623624 1.04303,1.339139 1.26039,1.590601 l 0.39532,0.457336 h 1.09089 c 1.0175,0 1.09089,-0.0092 1.09089,-0.136942 0,-0.103729 -0.0725,-0.148235 -0.29921,-0.184485 -0.71683,-0.114626 -1.22979,-0.5427 -2.24327,-1.870687 -0.38485,-0.504277 -0.85893,-1.102267 -1.05368,-1.329118 l -0.35399,-0.412378 0.24805,-0.04651 c 0.71119,-0.133421 1.34725,-0.635628 1.58388,-1.250053 0.12526,-0.325352 0.10499,-1.051621 -0.0398,-1.409733 -0.16123,-0.398803 -0.66711,-0.844366 -1.19579,-1.053166 -0.39022,-0.154117 -0.53803,-0.164125 -2.66289,-0.186035 -1.08162,-0.01115 -1.64384,-0.01592 -1.9358,-0.001 z m -45.612199,0.0021 c -1.572993,0.01245 -1.775376,0.02763 -1.795756,0.133326 -0.01808,0.09374 0.06164,0.129931 0.374138,0.168981 0.38324,0.04788 0.560056,0.160771 0.751375,0.480074 0.03616,0.06035 0.08551,1.27851 0.109554,2.706812 0.04914,2.919285 0.06554,3.021407 0.586011,3.612699 0.319661,0.363153 0.85424,0.649845 1.507918,0.80822 0.845616,0.204879 1.972097,0.09636 2.663403,-0.256315 0.456652,-0.232966 0.917037,-0.698879 1.141016,-1.154969 l 0.202572,-0.412894 0.05013,-2.517676 c 0.02747,-1.384587 0.06791,-2.589129 0.08992,-2.676839 0.07408,-0.295145 0.399939,-0.541929 0.782898,-0.592729 0.278266,-0.03691 0.357084,-0.07629 0.357084,-0.179317 0,-0.123492 -0.09418,-0.131606 -1.42627,-0.118856 -1.261245,0.01207 -1.4262,0.02736 -1.426269,0.132292 -5.5e-5,0.0824 0.09171,0.133565 0.30024,0.166915 0.441379,0.07058 0.695314,0.22813 0.804085,0.498677 0.07076,0.175998 0.103643,0.864904 0.122473,2.584339 0.02447,2.23438 0.0183,2.363776 -0.12764,2.753837 -0.198456,0.530421 -0.694351,1.002898 -1.286227,1.225765 -0.368269,0.138628 -0.542114,0.159108 -1.130163,0.134358 -0.479063,-0.02016 -0.77435,-0.07025 -0.950847,-0.16123 C 69.667859,88.368118 69.293117,87.95544 69.136393,87.536559 69.001088,87.174996 68.991,86.9708 68.9948,84.717093 c 0.0029,-1.680532 0.03108,-2.508527 0.09147,-2.685625 0.100041,-0.293363 0.457208,-0.511932 0.837158,-0.512113 0.186566,-9e-5 0.237712,-0.03064 0.237712,-0.14211 0,-0.137117 -0.06174,-0.141708 -1.773019,-0.128158 z m 15.196489,0.01447 -3.731039,0.01137 -3.730521,0.01189 -0.04599,0.500228 c -0.02517,0.275235 -0.04978,0.724893 -0.05478,0.999422 -0.0078,0.430481 0.0079,0.49634 0.113688,0.47594 0.08555,-0.0165 0.161821,-0.183236 0.252181,-0.550871 0.251318,-1.022447 0.413991,-1.118794 1.890324,-1.118794 h 1.02681 v 3.401342 c 0,3.266006 -0.0057,3.40754 -0.141593,3.543453 -0.164838,0.164837 -0.589582,0.296041 -0.958598,0.296623 -0.209746,3.31e-4 -0.258382,0.02812 -0.258382,0.146761 0,0.142605 0.04878,0.146244 1.92288,0.146244 1.825885,0 1.92288,-0.0067 1.92288,-0.135909 0,-0.111361 -0.07433,-0.143823 -0.408244,-0.178283 -0.466787,-0.04818 -0.738103,-0.197892 -0.838708,-0.462504 -0.04065,-0.10692 -0.06976,-1.558612 -0.06976,-3.47059 v -3.287137 h 1.006657 c 0.840946,0 1.048628,0.0221 1.259871,0.135392 0.286717,0.153768 0.554928,0.614843 0.626318,1.077453 0.057,0.369343 0.134661,0.502546 0.264584,0.452686 0.08277,-0.03176 0.08683,-0.206416 0.02532,-1.016475 z m -21.264852,0.139009 c 0.389625,0.0029 0.768863,0.07117 1.054199,0.204122 0.840804,0.391773 1.42162,1.133673 1.712557,2.18643 0.184321,0.666965 0.184554,2.2769 5.17e-4,2.880444 -0.391137,1.282722 -1.083323,1.99815 -2.153357,2.225188 -1.62221,0.344197 -2.993467,-0.631126 -3.417879,-2.43086 -0.138615,-0.587801 -0.138615,-2.067334 0,-2.655135 0.255363,-1.082878 0.88072,-1.906826 1.686202,-2.222086 0.327846,-0.128315 0.728136,-0.191048 1.117761,-0.188103 z m 24.666195,0.09457 0.766361,0.04341 c 1.411518,0.07993 1.868604,0.496145 1.874304,1.70739 0.0035,0.736066 -0.2999,1.257741 -0.92139,1.583882 -0.220948,0.11595 -0.467579,0.161492 -1.006141,0.185002 l -0.713134,0.03101 v -1.775086 z m 29.041637,0.0031 0.74983,0.03514 c 0.43401,0.02042 0.8611,0.08264 1.01389,0.147794 0.56896,0.242605 0.86616,0.776443 0.86816,1.560629 0.003,0.878437 -0.42379,1.50802 -1.16013,1.712557 -0.14555,0.04043 -0.53624,0.07367 -0.86817,0.0739 l -0.60358,5.17e-4 V 83.26552 Z m -16.02589,0.01912 0.82578,0.001 c 1.35928,0.0018 2.06107,0.238802 2.67168,0.901237 0.7112,0.771552 1.03612,2.029091 0.89813,3.477307 -0.14558,1.52796 -0.74007,2.377728 -1.89859,2.713529 -0.50574,0.146588 -1.27498,0.217416 -1.8433,0.170016 -0.64323,-0.05366 -0.60859,0.154083 -0.63252,-3.796151 z M 87.345611,90.40927 c -0.06566,0.02084 -0.264171,0.08356 -0.4408,0.139009 -0.270201,0.08482 -0.289148,0.101904 -0.11989,0.108004 0.110639,0.004 0.201022,0.04232 0.201022,0.08527 0,0.04295 -0.130046,0.511933 -0.288872,1.042314 -0.607147,2.027493 -0.656874,2.379933 -0.351916,2.482533 0.248309,0.0835 0.563232,-0.20009 0.670243,-0.60358 0.03191,-0.12038 -0.0037,-0.0879 -0.103869,0.0951 -0.164557,0.30047 -0.330129,0.4073 -0.448552,0.28887 -0.08696,-0.087 0.214915,-1.278797 0.692981,-2.734709 0.248252,-0.756034 0.285613,-0.933247 0.189653,-0.902787 z m 9.682613,0.694014 c -0.02467,-0.0011 -0.06054,0.0049 -0.108521,0.01189 -0.126428,0.01829 -0.187189,0.110559 -0.278019,0.425297 -0.100566,0.34848 -0.144474,0.408381 -0.331763,0.448551 -0.212331,0.04551 -0.213061,0.04679 -0.02325,0.05529 l 0.19327,0.0088 -0.17725,0.56689 c -0.336518,1.074618 -0.389633,1.378838 -0.270268,1.549258 0.05839,0.0834 0.139234,0.15141 0.179834,0.15141 0.234301,0 0.584378,-0.37738 0.679028,-0.73174 0.04247,-0.159 0.03312,-0.15413 -0.07235,0.0367 -0.183854,0.33264 -0.399995,0.5428 -0.513664,0.4992 -0.141604,-0.0543 -0.138141,-0.0751 0.193787,-1.1312 l 0.295589,-0.940508 0.234611,-0.01137 c 0.221233,-0.01033 0.223298,-0.0126 0.03359,-0.04134 -0.231131,-0.03501 -0.242921,-0.103518 -0.09147,-0.532784 0.103773,-0.294129 0.130841,-0.360981 0.05684,-0.364319 z m -3.761011,0.01189 c -0.118736,0.01779 -0.184662,0.118801 -0.275952,0.422713 -0.0937,0.311945 -0.159802,0.410692 -0.301274,0.450102 l -0.180867,0.05064 0.172599,0.0072 c 0.13308,0.0056 0.16116,0.03658 0.12299,0.135393 -0.106645,0.276089 -0.478524,1.660158 -0.478524,1.781288 0,0.0706 0.05149,0.1802 0.114722,0.2434 0.06322,0.0633 0.160261,0.11472 0.215491,0.11472 0.16442,0 0.464178,-0.30986 0.583943,-0.60358 0.147394,-0.36153 0.0794,-0.35131 -0.108004,0.016 -0.177333,0.34765 -0.418325,0.51029 -0.487825,0.32918 -0.02504,-0.0652 0.07925,-0.54413 0.232027,-1.06402 0.276457,-0.940767 0.278884,-0.945108 0.503845,-0.956018 0.221003,-0.01071 0.221501,-0.01206 0.02481,-0.04186 -0.234543,-0.03553 -0.234098,-0.03435 -0.09198,-0.502812 0.05992,-0.197505 0.109119,-0.369545 0.109554,-0.382405 4.36e-4,-0.01286 -0.06972,-0.01286 -0.155546,0 z M 81.993482,91.83451 c -0.168819,0.02818 -0.526755,0.437458 -0.687296,0.857828 -0.143887,0.376752 -0.26235,0.415192 -0.162264,0.05271 0.03937,-0.142419 0.06148,-0.380924 0.04909,-0.5302 -0.01938,-0.23351 -0.04763,-0.271818 -0.202572,-0.271818 -0.130737,0 -0.237976,0.08633 -0.391707,0.315226 -0.116461,0.173414 -0.197504,0.330103 -0.179834,0.347783 0.01767,0.01767 0.111522,-0.09104 0.208772,-0.241329 0.376487,-0.581783 0.413532,-0.05441 0.07958,1.13274 l -0.21084,0.74983 h 0.157097 c 0.125754,0 0.175994,-0.0693 0.250114,-0.34727 0.05096,-0.19111 0.234346,-0.647 0.407727,-1.013368 0.264642,-0.559234 0.352361,-0.679168 0.544669,-0.746208 0.125992,-0.04392 0.228927,-0.13083 0.228927,-0.19327 0,-0.08891 -0.03519,-0.122047 -0.09147,-0.112654 z m 3.01377,0.07235 c -0.779061,0 -1.661311,1.82243 -1.101742,2.27583 0.245569,0.19897 0.503757,0.10299 0.903821,-0.33693 l 0.132809,-0.14624 -0.01034,0.14624 c -0.02417,0.33074 0.0069,0.40205 0.175184,0.40205 0.173758,0 0.478762,-0.27502 0.628902,-0.5669 0.137102,-0.26654 0.0245,-0.18843 -0.185002,0.12816 -0.191482,0.28931 -0.393774,0.38754 -0.393774,0.1912 0,-0.0558 0.134835,-0.53519 0.299723,-1.06556 0.164889,-0.530384 0.283136,-0.981392 0.262516,-1.002012 -0.02062,-0.02062 -0.10969,0.0014 -0.19792,0.04858 -0.116017,0.06206 -0.182486,0.06348 -0.240296,0.0057 -0.04396,-0.04396 -0.167267,-0.0801 -0.273885,-0.0801 z m 5.026567,0.0078 c -0.164425,-0.0012 -0.37723,0.109825 -0.594279,0.333313 -0.657016,0.676507 -0.848431,1.840557 -0.33228,2.021587 0.248947,0.0873 0.627665,-0.11454 0.910022,-0.48473 0.291781,-0.38256 0.221031,-0.40009 -0.107487,-0.0269 -0.468812,0.53264 -0.803285,0.52715 -0.800985,-0.0129 0.0014,-0.33438 0.03119,-0.37314 0.45837,-0.58807 0.480863,-0.241954 0.798372,-0.614127 0.769462,-0.902279 -0.02259,-0.225259 -0.138399,-0.338824 -0.302823,-0.340031 z m -6.873999,0.0052 c -0.311058,0.01822 -0.712409,0.382682 -0.998906,0.956014 -0.349756,0.699926 -0.293439,1.249046 0.143144,1.388026 0.198876,0.0633 0.509547,-0.099 0.768945,-0.40204 0.140485,-0.16412 0.255282,-0.33027 0.255282,-0.36897 0,-0.0387 -0.132704,0.0806 -0.295073,0.2651 -0.327019,0.37147 -0.535861,0.47404 -0.696081,0.34107 -0.187026,-0.15521 -0.09076,-0.80202 0.119372,-0.80202 0.168801,0 0.873354,-0.521689 0.978235,-0.724507 0.143237,-0.276959 0.142986,-0.405818 -0.0015,-0.550354 -0.07601,-0.07601 -0.169683,-0.108391 -0.273368,-0.102319 z m 8.553483,0.0021 c -0.120524,-0.01195 -0.264619,0.01577 -0.376205,0.08888 -0.09632,0.06311 -0.211558,0.238084 -0.255798,0.389124 -0.06719,0.229439 -0.05551,0.34594 0.07028,0.706936 0.189173,0.54305 0.190241,0.80814 0.0041,0.99425 -0.211606,0.2116 -0.397235,0.16646 -0.449585,-0.10955 -0.0359,-0.18909 -0.245463,-0.191 -0.245463,-0.002 0,0.0803 0.08104,0.18508 0.182934,0.23668 0.228614,0.11537 0.310639,0.1167 0.550871,0.007 0.401806,-0.18308 0.498665,-0.68137 0.253732,-1.30277 -0.194569,-0.493635 -0.190163,-0.775497 0.01292,-0.884183 0.129311,-0.06921 0.174613,-0.0633 0.245463,0.03359 0.115501,0.157983 0.270855,0.152364 0.240295,-0.0088 -0.01627,-0.08579 -0.113054,-0.137396 -0.233577,-0.149345 z m 3.201871,0.0026 c -0.36788,-0.03704 -0.812922,0.329952 -1.122412,0.949296 -0.286438,0.573214 -0.312967,1.156394 -0.06046,1.333254 0.08942,0.0627 0.190346,0.11369 0.224276,0.11369 0.139193,0 0.394517,-0.17359 0.600996,-0.40876 l 0.219109,-0.2496 v 0.27234 c 0,0.20635 0.03307,0.27962 0.134875,0.29972 0.154972,0.0306 0.453236,-0.22432 0.605648,-0.51728 0.152566,-0.2933 0.07705,-0.24595 -0.146244,0.0915 -0.230197,0.34781 -0.437407,0.39914 -0.369487,0.0915 0.0402,-0.18212 0.244799,-0.85939 0.507979,-1.681551 0.09352,-0.292099 0.09083,-0.308445 -0.04082,-0.288355 -0.07677,0.01171 -0.159832,0.04201 -0.185002,0.06718 -0.02517,0.02517 -0.122407,0.01113 -0.216007,-0.03152 -0.04878,-0.02223 -0.09989,-0.03605 -0.152446,-0.04134 z m 3.488676,0.01602 c -0.196163,0.03904 -0.430576,0.18391 -0.630452,0.420647 -0.596386,0.706373 -0.733419,1.739473 -0.253215,1.907893 0.135862,0.0477 0.351773,-0.005 0.561723,-0.13746 0.191777,-0.1208 0.571511,-0.60364 0.517281,-0.65784 -0.02114,-0.0211 -0.107093,0.0727 -0.191203,0.20877 -0.08411,0.13609 -0.266459,0.30874 -0.405143,0.38344 -0.213923,0.1152 -0.270111,0.12049 -0.371037,0.0367 -0.17145,-0.14229 -0.123188,-0.65576 0.07131,-0.75964 0.833092,-0.44496 1.191121,-0.830899 1.101741,-1.187009 -0.04708,-0.187588 -0.204846,-0.25453 -0.401009,-0.215491 z m -8.463566,0.06563 c 0.05052,-0.01431 0.09469,-0.0056 0.129191,0.02894 0.195345,0.195345 -0.174801,0.860922 -0.601513,1.08159 -0.359535,0.18592 -0.361119,0.17285 -0.06356,-0.450621 0.175827,-0.368414 0.38432,-0.616984 0.535884,-0.659908 z m -4.872054,0.0016 c 0.07087,0.0064 0.132677,0.04572 0.180351,0.121439 0.117877,0.187222 -0.211254,1.258761 -0.504879,1.643311 -0.263832,0.34553 -0.570354,0.44566 -0.658874,0.21498 -0.08103,-0.21117 0.03909,-0.82666 0.242362,-1.241791 0.235095,-0.480131 0.528438,-0.757127 0.74104,-0.737939 z m 9.819556,0.0041 c 0.03558,-0.0037 0.07028,-9e-5 0.102836,0.0124 0.11103,0.04261 0.126278,0.107262 0.09302,0.38809 -0.05404,0.456316 -0.314426,1.13077 -0.540019,1.39888 -0.243871,0.28998 -0.39817,0.36789 -0.555005,0.28009 -0.455563,-0.25495 0.365532,-2.023975 0.89917,-2.079462 z m -11.793079,0.0036 c 0.04737,-0.0152 0.08781,-0.01038 0.116789,0.0186 0.182725,0.182725 -0.116393,0.788163 -0.521415,1.05523 -0.387133,0.25527 -0.410207,0.13349 -0.09354,-0.500225 0.150666,-0.301509 0.356057,-0.528017 0.498161,-0.573609 z m 15.376323,0.01447 c 0.05121,0.02431 0.07338,0.108766 0.07338,0.257348 0,0.172288 -0.08418,0.309485 -0.355534,0.580843 -0.396673,0.396679 -0.638515,0.477749 -0.523482,0.175189 0.155148,-0.40808 0.373819,-0.76566 0.556039,-0.908994 0.117799,-0.09266 0.198389,-0.128696 0.249597,-0.104386 z m -18.928044,0.556555 c -0.592243,-8.56e-4 -0.745291,0.04366 -0.748791,0.216524 -6.17e-4,0.03017 0.311275,0.05478 0.693497,0.05478 0.626878,0 0.695048,-0.01357 0.695048,-0.135392 0,-0.120945 -0.06655,-0.135082 -0.639754,-0.135909 z m 20.342428,0.0036 c -0.549911,0.0099 -0.647583,0.03026 -0.668693,0.139527 -0.022,0.113886 0.04408,0.128157 0.60203,0.128157 0.344939,0 0.627349,-0.01366 0.627349,-0.03049 0,-0.01683 0.0189,-0.08009 0.0419,-0.140043 0.0353,-0.09202 -0.0588,-0.106952 -0.602546,-0.09715 z" /></g></g></svg>
